<?xml version="1.0" standalone="no"?>
<!DOCTYPE svg PUBLIC "-//W3C//DTD SVG 20010904//EN"
 "http://www.w3.org/TR/2001/REC-SVG-20010904/DTD/svg10.dtd">
<svg version="1.0" xmlns="http://www.w3.org/2000/svg"
 width="512.000000pt" height="512.000000pt" viewBox="0 0 512.000000 512.000000"
 preserveAspectRatio="xMidYMid meet">
<metadata>
Created by potrace 1.14, written by Peter Selinger 2001-2017
</metadata>
<g transform="translate(0.000000,512.000000) scale(0.100000,-0.100000)"
fill="#000000" stroke="none">
<path d="M4260 4898 c-124 -32 -234 -60 -245 -62 -11 -2 -49 -12 -85 -21 -36
-9 -72 -18 -80 -20 -8 -2 -70 -17 -137 -35 -67 -17 -130 -33 -140 -35 -10 -2
-315 -78 -678 -170 -363 -92 -667 -168 -675 -170 -8 -2 -231 -58 -495 -125
-264 -67 -487 -123 -495 -125 -8 -2 -125 -31 -260 -66 -228 -58 -255 -63 -388
-68 -138 -6 -144 -7 -162 -31 -19 -24 -20 -50 -20 -682 0 -412 4 -666 10 -683
6 -15 22 -30 40 -36 30 -11 30 -11 30 -90 l0 -79 -40 0 -40 0 2 -1037 c3 -955
4 -1040 20 -1068 19 -33 79 -91 118 -115 22 -13 266 -15 2001 -17 1745 -3
1981 -1 2020 12 52 18 88 49 127 108 l27 42 3 1480 c2 1116 -1 1487 -9 1508
-7 16 -23 33 -36 38 -14 5 -674 9 -1611 9 -912 0 -1582 4 -1576 9 7 7 645 173
774 201 19 4 89 21 155 38 66 17 318 81 560 142 242 61 448 113 459 115 10 3
64 16 120 31 55 14 108 27 116 29 8 2 89 22 180 45 91 23 172 43 180 45 8 2
113 28 233 59 121 31 231 58 245 61 15 3 68 16 117 30 92 25 125 48 125 87 0
11 -30 137 -66 281 -36 144 -67 269 -69 277 -20 102 -54 152 -102 148 -16 -1
-129 -28 -253 -60z"/>
</g>
</svg>
